<?xml version="1.0" standalone="no"?>
<!DOCTYPE svg PUBLIC "-//W3C//DTD SVG 20010904//EN"
 "http://www.w3.org/TR/2001/REC-SVG-20010904/DTD/svg10.dtd">
<svg version="1.0" xmlns="http://www.w3.org/2000/svg"
 width="900.000000pt" height="381.000000pt" viewBox="0 0 900.000000 381.000000"
 preserveAspectRatio="xMidYMid meet">
<metadata>
Created by potrace 1.10, written by Peter Selinger 2001-2011
</metadata>
<g transform="translate(0.000000,381.000000) scale(0.100000,-0.100000)"
fill="#000000" stroke="none">
<path d="M554 2427 c-18 -10 -20 -177 -2 -195 9 -9 140 -12 527 -12 l514 0 39
-40 c43 -46 50 -88 21 -138 -36 -62 -33 -62 -579 -62 -322 0 -502 -4 -515 -10
-18 -10 -19 -25 -19 -329 l0 -319 23 -6 c12 -3 52 -6 89 -6 101 0 98 -6 98
236 0 193 1 205 19 212 11 4 159 6 329 4 l309 -3 35 -33 c39 -38 129 -187 214
-352 30 -59 42 -64 154 -64 119 0 122 7 50 133 -27 48 -50 89 -50 92 0 3 -18
34 -40 70 -22 36 -40 68 -40 72 0 3 -13 27 -30 54 l-29 48 32 22 c60 41 128
114 149 159 28 63 35 175 14 239 -31 95 -79 151 -176 202 -44 24 -49 24 -370
27 -179 1 -421 3 -538 5 -118 1 -220 -2 -228 -6z"/>
<path d="M4120 2397 c-25 -23 -79 -71 -120 -107 -41 -36 -77 -67 -80 -70 -6
-6 -181 -162 -235 -210 -111 -98 -128 -117 -122 -134 12 -31 37 -30 72 4 19
18 41 30 51 28 18 -3 19 -20 22 -306 1 -190 6 -302 12 -302 6 0 211 0 458 0
l447 0 5 302 c3 167 7 304 8 306 9 10 42 -3 69 -30 27 -26 37 -30 51 -22 35
22 22 42 -90 140 -62 54 -138 122 -168 150 -30 28 -90 82 -133 119 -43 37
-104 92 -135 121 -31 30 -59 54 -62 54 -3 0 -25 -19 -50 -43z m177 -154 c59
-54 124 -111 143 -128 19 -16 55 -49 80 -72 l45 -42 3 -306 c2 -223 0 -311 -9
-321 -9 -12 -77 -14 -388 -14 -207 0 -382 4 -389 8 -9 7 -12 78 -10 322 l3
314 100 89 c55 49 120 108 145 131 103 94 131 116 149 116 11 0 68 -44 128
-97z"/>
<path d="M4166 1962 c-3 -5 -26 -20 -50 -32 -54 -26 -65 -39 -72 -82 -8 -51
10 -85 66 -119 l50 -31 0 -64 c0 -47 -4 -66 -14 -70 -21 -8 -56 14 -56 35 0
24 -25 45 -46 37 -34 -13 13 -93 65 -111 18 -6 40 -20 48 -30 14 -20 14 -20
31 2 9 12 29 25 45 29 42 10 67 49 67 106 0 60 -18 90 -69 113 -36 16 -39 21
-43 64 -2 25 -2 54 0 64 7 27 36 20 56 -14 20 -34 39 -34 44 0 4 28 -30 67
-66 76 -14 3 -31 13 -37 22 -8 10 -14 12 -19 5z m-11 -127 c0 -41 -3 -50 -19
-53 -40 -8 -62 61 -30 93 30 30 49 15 49 -40z m80 -159 c26 -19 26 -83 0 -102
-28 -21 -39 -12 -46 37 -10 74 5 95 46 65z"/>
<path d="M2122 2418 c-15 -15 -16 -152 -2 -179 10 -18 28 -19 660 -19 747 0
668 -14 671 114 1 58 -2 80 -12 87 -23 14 -1302 12 -1317 -3z"/>
<path d="M4942 2418 c-15 -15 -17 -702 -2 -793 9 -53 34 -121 51 -135 3 -3 11
-15 18 -27 17 -34 108 -98 171 -122 53 -20 74 -21 492 -21 422 0 438 1 448 19
16 30 12 133 -6 159 l-15 22 -413 0 c-465 0 -460 -1 -517 72 l-34 42 -3 385
c-2 254 -7 390 -14 398 -14 17 -159 18 -176 1z"/>
<path d="M5989 2418 c-18 -7 -20 -16 -17 -95 l3 -88 277 -5 c172 -3 281 -9
287 -15 7 -7 12 -164 13 -450 l3 -440 89 -3 c65 -2 92 1 98 10 4 7 8 207 8
445 0 423 0 433 20 443 13 7 110 10 276 9 205 -1 258 2 265 13 12 18 11 165
-1 173 -14 8 -1298 11 -1321 3z"/>
<path d="M7415 2410 c-3 -5 -1 -11 5 -15 5 -3 22 -30 36 -58 36 -73 50 -97 63
-110 6 -6 11 -17 11 -25 0 -8 14 -34 30 -59 17 -24 30 -50 30 -58 0 -8 4 -16
9 -19 5 -3 27 -36 49 -73 73 -124 148 -179 274 -204 33 -7 66 -18 74 -26 11
-12 14 -56 14 -229 l0 -215 93 3 92 3 3 217 2 218 28 14 c15 7 48 16 74 20 84
12 163 64 214 138 16 24 31 45 35 48 3 3 14 23 25 45 11 22 31 58 45 80 14 22
29 47 32 55 4 8 16 29 27 45 10 17 31 54 47 84 15 29 35 67 44 85 10 17 15 34
12 39 -2 4 -48 7 -102 7 l-98 0 -29 -42 c-16 -24 -39 -63 -52 -88 -12 -25 -31
-58 -42 -75 -10 -16 -31 -52 -45 -80 -86 -158 -105 -168 -315 -167 -106 1
-155 5 -182 16 -34 15 -108 92 -108 113 0 6 -13 29 -30 51 -16 23 -30 46 -30
52 0 6 -12 29 -27 53 -30 47 -67 110 -85 145 -11 21 -17 22 -115 21 -56 0
-105 -5 -108 -9z"/>
<path d="M2128 1969 c-17 -9 -18 -35 -18 -324 0 -182 4 -316 9 -320 12 -7
1310 -7 1322 0 5 4 9 46 9 95 0 71 -3 89 -16 94 -9 3 -257 6 -553 6 -404 0
-540 3 -549 12 -18 18 -16 212 1 227 10 7 148 12 448 13 l434 3 3 90 c2 76 0
92 -14 102 -23 17 -1049 18 -1076 2z"/>
</g>
</svg>
