<?xml version="1.0" standalone="no"?>
<!DOCTYPE svg PUBLIC "-//W3C//DTD SVG 20010904//EN"
 "http://www.w3.org/TR/2001/REC-SVG-20010904/DTD/svg10.dtd">
<svg version="1.0" xmlns="http://www.w3.org/2000/svg"
 width="300.000000pt" height="127.000000pt" viewBox="0 0 300.000000 127.000000"
 preserveAspectRatio="xMidYMid meet">
<metadata>
Created by potrace 1.10, written by Peter Selinger 2001-2011
</metadata>
<g transform="translate(0.000000,127.000000) scale(0.100000,-0.100000)"
fill="#000000" stroke="none">
<path d="M180 780 l0 -40 179 0 c191 0 210 -5 196 -49 -6 -20 -15 -21 -188
-23 l-182 -3 -3 -112 -3 -113 42 0 41 0 -4 75 -3 75 107 0 c122 0 119 1 170
-90 32 -59 33 -60 75 -60 24 0 43 2 43 4 0 2 -19 37 -43 78 l-44 73 34 31 c27
26 33 38 33 73 0 23 -8 53 -17 68 -30 45 -66 53 -258 53 l-175 0 0 -40z m367
-163 c-14 -32 -28 -34 -52 -7 -18 20 -17 20 13 20 17 0 34 5 37 11 13 20 15 2
2 -24z"/>
<path d="M704 806 c-3 -8 -4 -25 -2 -38 l3 -23 225 0 225 0 0 35 0 35 -223 3
c-187 2 -223 0 -228 -12z"/>
<path d="M1340 777 c-25 -23 -71 -65 -102 -92 -44 -39 -55 -54 -47 -65 8 -13
11 -13 23 3 7 9 15 17 17 17 3 0 3 -47 1 -105 l-4 -105 161 0 161 0 0 107 c0
102 1 105 18 90 17 -16 32 -14 32 4 0 8 -201 189 -209 189 -4 0 -26 -20 -51
-43z m118 -53 l62 -56 0 -104 0 -104 -130 0 -130 0 0 102 0 102 63 58 c34 31
64 57 67 57 3 1 33 -24 68 -55z"/>
<path d="M1366 645 c-23 -21 -25 -28 -16 -45 6 -12 18 -24 26 -27 16 -6 20
-43 4 -43 -5 0 -10 5 -10 10 0 6 -7 10 -15 10 -24 0 -18 -17 14 -39 l29 -21
26 25 c14 13 26 28 26 34 0 12 -28 41 -41 41 -5 0 -9 10 -9 22 0 17 3 19 12
10 16 -16 28 -15 28 3 0 9 -8 19 -17 22 -10 4 -21 10 -24 15 -3 5 -18 -3 -33
-17z"/>
<path d="M1647 814 c-4 -4 -7 -66 -7 -137 0 -146 12 -186 64 -218 27 -16 52
-19 189 -19 l158 0 -3 37 -3 36 -138 -2 c-193 -3 -186 -10 -189 167 l-3 137
-30 3 c-17 2 -34 0 -38 -4z"/>
<path d="M1990 780 l0 -40 95 0 95 0 0 -150 0 -150 40 0 40 0 0 150 0 150 95
0 95 0 0 40 0 40 -230 0 -230 0 0 -40z m270 0 c16 0 15 -4 -8 -28 l-27 -28
-28 25 -28 26 23 6 c13 4 29 5 36 3 8 -2 22 -4 32 -4z"/>
<path d="M2470 810 c0 -5 12 -31 28 -57 15 -26 34 -61 42 -76 19 -39 66 -77
102 -84 l29 -6 -2 -71 -2 -71 36 -3 37 -3 0 75 c0 66 2 76 18 76 39 0 81 40
131 125 28 48 51 91 51 96 0 5 -18 9 -39 9 -38 0 -41 -3 -72 -57 -51 -92 -53
-93 -130 -93 l-68 0 -42 75 c-40 74 -42 75 -80 75 -21 0 -39 -4 -39 -10z m265
-188 c6 -4 2 -15 -12 -28 l-21 -22 -20 23 c-11 13 -18 26 -15 29 9 8 56 7 68
-2z"/>
<path d="M707 664 c-4 -4 -7 -56 -7 -116 l0 -108 231 0 230 0 -3 36 -3 37
-187 -2 -188 -2 0 40 0 41 151 0 150 0 -3 38 -3 37 -181 3 c-99 1 -183 -1
-187 -4z m73 -43 c0 -12 -29 -35 -36 -28 -11 10 5 37 21 37 8 0 15 -4 15 -9z"/>
</g>
</svg>
