<?xml version="1.0" standalone="no"?>
<!DOCTYPE svg PUBLIC "-//W3C//DTD SVG 20010904//EN"
 "http://www.w3.org/TR/2001/REC-SVG-20010904/DTD/svg10.dtd">
<svg version="1.0" xmlns="http://www.w3.org/2000/svg"
 width="568.000000pt" height="240.000000pt" viewBox="0 0 568.000000 240.000000"
 preserveAspectRatio="xMidYMid meet">
<metadata>
Created by potrace 1.16, written by Peter Selinger 2001-2019
</metadata>
<g transform="translate(0.000000,240.000000) scale(0.100000,-0.100000)"
fill="#000000" stroke="none">
<path d="M2437 1374 c-189 -169 -197 -177 -181 -195 16 -18 18 -18 48 8 l31
26 3 -197 2 -196 300 0 300 0 0 196 0 196 31 -26 c25 -21 34 -24 46 -15 22 19
13 34 -53 91 -33 29 -120 106 -192 171 -72 64 -132 117 -134 117 -2 0 -92 -79
-201 -176z m331 -7 l112 -100 0 -199 0 -198 -242 2 -243 3 -3 192 -2 191 42
40 c135 124 203 180 212 175 6 -4 62 -52 124 -106z"/>
<path d="M2630 1251 c0 -6 -8 -14 -17 -18 -77 -27 -84 -111 -13 -148 30 -16
38 -42 24 -79 -5 -13 -9 -14 -20 -5 -8 6 -14 18 -14 25 0 8 -11 14 -26 14 -20
0 -25 -4 -20 -16 3 -9 6 -19 6 -24 0 -5 21 -23 47 -40 40 -27 48 -29 55 -16 5
9 15 16 22 16 23 0 56 45 56 76 0 34 -13 53 -52 77 -21 13 -28 26 -28 47 0 31
17 41 26 15 9 -22 44 -19 44 3 0 19 -29 52 -45 52 -5 0 -17 7 -27 17 -11 10
-18 12 -18 4z"/>
<path d="M347 1533 c-9 -8 -9 -96 -1 -117 5 -14 44 -16 334 -16 304 0 329 -1
351 -18 31 -26 31 -78 0 -104 -22 -17 -47 -18 -352 -18 l-329 0 -5 -22 c-3
-13 -4 -108 -3 -213 l3 -190 68 -3 67 -3 0 141 0 140 204 0 c189 0 205 -1 229
-20 14 -11 56 -74 92 -140 l67 -120 74 0 c51 0 74 4 74 12 0 6 -34 72 -75 145
l-75 133 54 52 c93 91 102 198 24 292 -61 74 -69 76 -454 76 -187 0 -344 -3
-347 -7z"/>
<path d="M1337 1533 c-10 -9 -8 -105 1 -121 7 -10 99 -12 428 -10 l419 3 3 68
3 67 -424 0 c-233 0 -427 -3 -430 -7z"/>
<path d="M3117 1533 c-4 -3 -7 -113 -7 -243 0 -266 8 -314 63 -377 17 -20 54
-47 82 -59 49 -23 58 -24 331 -24 248 0 283 2 288 16 8 22 7 97 -2 111 -6 9
-82 13 -285 15 l-277 3 -27 28 -28 27 -3 255 -3 255 -63 0 c-34 0 -66 -3 -69
-7z"/>
<path d="M3772 1473 l3 -68 178 -3 177 -2 0 -273 c0 -149 4 -278 9 -285 5 -9
26 -12 67 -10 l59 3 3 282 2 283 178 2 177 3 3 68 3 67 -431 0 -431 0 3 -67z"/>
<path d="M4680 1527 c0 -21 166 -307 197 -340 31 -33 80 -57 133 -66 l35 -6 5
-140 5 -140 65 0 65 0 5 140 5 139 42 8 c54 9 91 28 130 70 36 37 193 308 193
333 0 12 -14 15 -73 15 l-73 0 -67 -120 c-89 -157 -93 -160 -223 -160 -57 0
-114 5 -127 11 -16 7 -51 56 -98 140 l-74 129 -72 0 c-54 0 -73 -3 -73 -13z"/>
<path d="M1341 1246 c-8 -9 -11 -74 -9 -212 l3 -199 425 0 425 0 0 65 0 65
-355 5 -355 5 -3 68 -3 67 279 0 c203 0 281 3 290 12 16 16 16 110 0 126 -19
19 -681 17 -697 -2z"/>
</g>
</svg>
